# xmcd
#
# Track frame offsets:
#	150
#	12912
#	25232
#	38108
#	56388
#	80079
#	101387
#	114504
#	125843
#	136300
#	145782
#	162360
#	176549
#	192206
#	204437
#
# Disc length: 3025 seconds
#
# Revision: 6
# Processed by: cddbd v1.5.2PL0 Copyright (c) Steve Scherf et al.
# Submitted via: EZCDAudioConverter 2.1.7.1
#
DISCID=c80bcf0f
DTITLE=V/A - Revolver Reloaded
DYEAR=2006
DGENRE=MOJO
TTITLE0=Catfish Haven - Taxman
TTITLE1=Handsome Family with The Rivet Gang - Eleanor Rigby
TTITLE2=Neal Casal - I'm Only Sleeping
TTITLE3=Sukilove - Love You To
TTITLE4=Belarus - Here, There And Everywhere
TTITLE5=Chris Eckman - Yellow Submarine
TTITLE6=Mark Mulcahy - She Said She Said
TTITLE7=Lampshade - Good Day Sunshine
TTITLE8=Jim Reid - And Your Bird Can Sing
TTITLE9=Michael Weston King - For No One
TTITLE10=Luke Temple - Doctor Robert
TTITLE11=Thea Gilmore - I Want To Tell You
TTITLE12=Green Pajamas - Got To Get You Into My Life
TTITLE13=Jason McNiff - Tomorrow Never Knows
TTITLE14=Ed Harcourt - Rain
EXTD=
EXTT0=
EXTT1=
EXTT2=
EXTT3=
EXTT4=
EXTT5=
EXTT6=
EXTT7=
EXTT8=
EXTT9=
EXTT10=
EXTT11=
EXTT12=
EXTT13=
EXTT14=
PLAYORDER=
